<svg width="48" height="48" viewBox="0 0 48 48" fill="none" xmlns="http://www.w3.org/2000/svg">
<path d="M31.6487 34.8919H10.2432C9.38308 34.8919 8.55816 34.5502 7.94994 33.942C7.34171 33.3337 7.00001 32.5088 7 31.6487V10.2432C7.00001 9.38307 7.34172 8.55814 7.94995 7.94992C8.55818 7.3417 9.38312 7 10.2433 7H31.6487C32.5088 7 33.3338 7.3417 33.942 7.94994C34.5502 8.55817 34.8919 9.38311 34.8919 10.2433V31.6487C34.8919 32.0746 34.808 32.4963 34.6451 32.8898C34.4821 33.2833 34.2432 33.6408 33.942 33.942C33.6408 34.2432 33.2833 34.4821 32.8898 34.6451C32.4963 34.808 32.0746 34.8919 31.6487 34.8919ZM10.2432 9.59458C10.0712 9.59458 9.90621 9.66292 9.78457 9.78457C9.66292 9.90621 9.59458 10.0712 9.59458 10.2432V31.6487C9.59458 31.8207 9.66292 31.9857 9.78457 32.1073C9.90621 32.229 10.0712 32.2973 10.2432 32.2973H31.6487C31.8207 32.2973 31.9857 32.229 32.1073 32.1073C32.229 31.9857 32.2973 31.8207 32.2973 31.6487V10.2432C32.2973 10.0712 32.229 9.90621 32.1073 9.78457C31.9857 9.66292 31.8207 9.59458 31.6487 9.59458H10.2432ZM36.8379 40.0811H14.7838C13.9236 40.0811 13.0987 39.7394 12.4905 39.1311C11.8822 38.5229 11.5405 37.698 11.5405 36.8378V33.5946C11.5426 33.2519 11.6802 32.9239 11.9233 32.6823C12.1663 32.4407 12.4951 32.3051 12.8378 32.3051C13.1806 32.3051 13.5093 32.4407 13.7524 32.6823C13.9955 32.9239 14.1331 33.2519 14.1351 33.5946V36.8379C14.1351 37.0099 14.2035 37.1749 14.3251 37.2965C14.4468 37.4182 14.6117 37.4865 14.7838 37.4865H36.8379C37.0099 37.4865 37.1749 37.4182 37.2965 37.2965C37.4182 37.1749 37.4865 37.0099 37.4865 36.8379V14.7838C37.4865 14.6117 37.4182 14.4468 37.2965 14.3251C37.1749 14.2035 37.0099 14.1351 36.8379 14.1351H33.5946C33.2519 14.1331 32.9239 13.9955 32.6823 13.7524C32.4407 13.5093 32.3051 13.1806 32.3051 12.8378C32.3051 12.4951 32.4407 12.1663 32.6823 11.9233C32.9239 11.6802 33.2519 11.5426 33.5946 11.5405H36.8379C37.698 11.5406 38.523 11.8823 39.1312 12.4905C39.7394 13.0987 40.0811 13.9237 40.0811 14.7838V36.8379C40.0811 37.698 39.7394 38.523 39.1311 39.1312C38.5229 39.7394 37.698 40.0811 36.8379 40.0811Z" fill="black"/>
<path d="M24.2846 16.3297L21.1031 19.5123L17.9216 16.3297C17.817 16.2252 17.693 16.1423 17.5564 16.0857C17.4198 16.0291 17.2734 16 17.1256 16C16.8271 16 16.5408 16.1186 16.3297 16.3297C16.2252 16.4342 16.1423 16.5583 16.0857 16.6949C16.0291 16.8314 16 16.9778 16 17.1256C16 17.2734 16.0291 17.4198 16.0857 17.5564C16.1423 17.693 16.2252 17.817 16.3297 17.9216L19.5123 21.1031L16.3297 24.2846C16.2252 24.3891 16.1423 24.5132 16.0857 24.6497C16.0291 24.7863 16 24.9327 16 25.0805C16 25.379 16.1186 25.6653 16.3297 25.8764C16.4342 25.981 16.5583 26.0639 16.6949 26.1204C16.8314 26.177 16.9778 26.2061 17.1256 26.2061C17.2734 26.2061 17.4198 26.177 17.5564 26.1204C17.693 26.0639 17.817 25.981 17.9216 25.8764L21.1031 22.6938L24.2846 25.8764C24.4957 26.0875 24.782 26.2061 25.0805 26.2061C25.379 26.2061 25.6653 26.0875 25.8764 25.8764C26.0875 25.6653 26.2061 25.379 26.2061 25.0805C26.2061 24.782 26.0875 24.4957 25.8764 24.2846L22.6938 21.1031L25.8764 17.9216C25.981 17.817 26.0639 17.693 26.1204 17.5564C26.177 17.4198 26.2061 17.2734 26.2061 17.1256C26.2061 16.9778 26.177 16.8314 26.1204 16.6949C26.0639 16.5583 25.981 16.4342 25.8764 16.3297C25.7719 16.2252 25.6478 16.1423 25.5113 16.0857C25.3747 16.0291 25.2283 16 25.0805 16C24.9327 16 24.7863 16.0291 24.6497 16.0857C24.5132 16.1423 24.3891 16.2252 24.2846 16.3297Z" fill="black"/>
</svg>
