<svg width="150" height="150" viewBox="0 0 150 150" fill="none" xmlns="http://www.w3.org/2000/svg">
<g clip-path="url(#clip0_565_1534)">
<path d="M144.25 113.969C159.469 92.7507 143.5 64.1257 105.375 59.8757C113.813 26.7819 62 4.28195 24.125 21.6257L4.00001 15.6257C3.43739 15.4492 2.83632 15.4355 2.26623 15.5861C1.69615 15.7368 1.18032 16.0456 0.778338 16.477C0.376357 16.9084 0.104631 17.4447 -0.00544864 18.024C-0.115528 18.6033 -0.0594673 19.2019 0.156256 19.7507L5.75001 36.0319C-10.9687 59.3757 9.71875 86.2507 44.625 90.1257C36.125 123.469 88.125 145.657 125.875 128.376C147.875 134.813 146.25 134.376 146.875 134.376C147.385 134.403 147.894 134.305 148.357 134.089C148.82 133.874 149.223 133.549 149.532 133.142C149.84 132.735 150.044 132.259 150.126 131.755C150.207 131.251 150.164 130.734 150 130.251L144.25 113.969ZM6.25001 53.1257C6.25001 41.8757 13.5 39.3132 12.2188 35.5944L8.03126 23.4382L23.5625 28.1257C26.5 28.8132 33.5 21.8757 53.125 21.8757C81.5313 21.8757 107.188 40.1257 98.3125 61.4382C91.3125 78.1257 66.5625 85.8445 49.0313 84.3757C29.4375 83.1882 6.25001 71.8757 6.25001 53.1257ZM141.969 126.563L126.344 122.032C123.406 121.188 116.406 128.282 96.7812 128.282C70.875 128.282 44.1875 112.282 50.875 90.7819C71.1875 91.3132 94.2188 83.4695 103.031 66.0944C134.094 68.8757 153.906 91.9382 138.219 111.657C136.781 113.376 137.813 114.501 141.969 126.563Z" fill="white"/>
<path d="M59.375 66.9688C60.375 68 61 68.75 62.5 68.75C63.1207 68.7536 63.7284 68.5723 64.2457 68.2292C64.7629 67.886 65.1663 67.3966 65.4043 66.8234C65.6423 66.2501 65.7042 65.619 65.5821 65.0104C65.46 64.4018 65.1595 63.8433 64.7187 63.4063L63.8438 62.5C66.0938 58.7188 65.625 56 65.625 50C65.625 46.6848 64.308 43.5054 61.9638 41.1612C59.6196 38.817 56.4402 37.5 53.125 37.5C49.8098 37.5 46.6304 38.817 44.2862 41.1612C41.942 43.5054 40.625 46.6848 40.625 50V56.25C40.6436 58.4352 41.2347 60.5773 42.3394 62.4627C43.4441 64.3482 45.0237 65.9111 46.9209 66.9956C48.818 68.0801 50.9663 68.6484 53.1515 68.6437C55.3368 68.639 57.4826 68.0615 59.375 66.9688ZM46.875 56.25V50C46.875 48.3424 47.5335 46.7527 48.7056 45.5806C49.8777 44.4085 51.4674 43.75 53.125 43.75C54.7826 43.75 56.3723 44.4085 57.5444 45.5806C58.7165 46.7527 59.375 48.3424 59.375 50C59.375 59.125 59.375 58.1875 58.4687 57.1563C58.1774 56.8649 57.8315 56.6338 57.4508 56.4761C57.0701 56.3184 56.6621 56.2372 56.25 56.2372C55.8379 56.2372 55.4299 56.3184 55.0492 56.4761C54.6685 56.6338 54.3226 56.8649 54.0313 57.1563C53.7399 57.4476 53.5088 57.7935 53.3511 58.1742C53.1934 58.5549 53.1122 58.9629 53.1122 59.375C53.1122 59.7871 53.1934 60.1951 53.3511 60.5758C53.5088 60.9565 53.7399 61.3024 54.0313 61.5937L54.7188 62.2812C53.7948 62.5249 52.8272 62.5535 51.8905 62.3647C50.9538 62.176 50.0728 61.775 49.3153 61.1925C48.5577 60.61 47.9439 59.8616 47.5208 59.0048C47.0978 58.148 46.8769 57.2056 46.875 56.25Z" fill="white"/>
<path d="M97.9688 81.4379C94 79.9692 93.5312 84.3442 84.5625 108.282C84.2724 109.061 84.3037 109.923 84.6495 110.679C84.9952 111.435 85.6272 112.023 86.4062 112.313C87.1853 112.603 88.0477 112.572 88.8037 112.226C89.5597 111.88 90.1474 111.248 90.4375 110.469L93.1875 103.125H100.562C103.156 110.032 103.375 112.5 106.25 112.5C106.755 112.502 107.254 112.381 107.702 112.148C108.151 111.915 108.536 111.576 108.825 111.161C109.114 110.746 109.297 110.268 109.361 109.766C109.424 109.265 109.364 108.755 109.187 108.282C98.875 80.8442 99.6562 82.0942 97.9688 81.4379ZM95.5312 96.8754L96.875 93.2817L98.2187 96.8754H95.5312Z" fill="white"/>
</g>
<defs>
<clipPath id="clip0_565_1534">
<rect width="150" height="150" fill="white"/>
</clipPath>
</defs>
</svg>
