<svg width="130" height="130" viewBox="0 0 130 130" fill="none" xmlns="http://www.w3.org/2000/svg">
<g clip-path="url(#clip0_543_151356)">
<path d="M8.12501 24.3757V8.12565H24.375C25.0933 8.12565 25.7822 7.84031 26.2901 7.3324C26.798 6.82449 27.0833 6.13561 27.0833 5.41732C27.0833 4.69902 26.798 4.01015 26.2901 3.50224C25.7822 2.99433 25.0933 2.70898 24.375 2.70898H5.41668C4.69838 2.70898 4.00951 2.99433 3.5016 3.50224C2.99368 4.01015 2.70834 4.69902 2.70834 5.41732V24.3757C2.70834 25.0939 2.99368 25.7828 3.5016 26.2907C4.00951 26.7986 4.69838 27.084 5.41668 27.084C6.13497 27.084 6.82385 26.7986 7.33176 26.2907C7.83967 25.7828 8.12501 25.0939 8.12501 24.3757Z" fill="white"/>
<path d="M105.625 8.12565H121.875V24.3757C121.875 25.0939 122.16 25.7828 122.668 26.2907C123.176 26.7986 123.865 27.084 124.583 27.084C125.302 27.084 125.99 26.7986 126.498 26.2907C127.006 25.7828 127.292 25.0939 127.292 24.3757V5.41732C127.292 4.69902 127.006 4.01015 126.498 3.50224C125.99 2.99433 125.302 2.70898 124.583 2.70898H105.625C104.907 2.70898 104.218 2.99433 103.71 3.50224C103.202 4.01015 102.917 4.69902 102.917 5.41732C102.917 6.13561 103.202 6.82449 103.71 7.3324C104.218 7.84031 104.907 8.12565 105.625 8.12565Z" fill="white"/>
<path d="M24.375 121.876H8.12501V105.626C8.12501 104.908 7.83967 104.219 7.33176 103.711C6.82385 103.203 6.13497 102.918 5.41668 102.918C4.69838 102.918 4.00951 103.203 3.5016 103.711C2.99368 104.219 2.70834 104.908 2.70834 105.626V124.585C2.70834 125.303 2.99368 125.992 3.5016 126.5C4.00951 127.008 4.69838 127.293 5.41668 127.293H24.375C25.0933 127.293 25.7822 127.008 26.2901 126.5C26.798 125.992 27.0833 125.303 27.0833 124.585C27.0833 123.866 26.798 123.177 26.2901 122.67C25.7822 122.162 25.0933 121.876 24.375 121.876Z" fill="white"/>
<path d="M121.875 105.626V121.876H105.625C104.907 121.876 104.218 122.162 103.71 122.67C103.202 123.177 102.917 123.866 102.917 124.585C102.917 125.303 103.202 125.992 103.71 126.5C104.218 127.008 104.907 127.293 105.625 127.293H124.583C125.302 127.293 125.99 127.008 126.498 126.5C127.006 125.992 127.292 125.303 127.292 124.585V105.626C127.292 104.908 127.006 104.219 126.498 103.711C125.99 103.203 125.302 102.918 124.583 102.918C123.865 102.918 123.176 103.203 122.668 103.711C122.16 104.219 121.875 104.908 121.875 105.626Z" fill="white"/>
<path d="M127.292 70.4175H93.275L94.25 65.0008C96.9837 65.1655 99.6783 64.2887 101.792 62.5469C103.905 60.805 105.28 58.3274 105.641 55.6126C106.001 52.8978 105.32 50.1472 103.734 47.9144C102.148 45.6815 99.7757 44.1321 97.0937 43.5779C95.1979 15.005 59.1771 2.68205 40.2188 25.0529C35.8492 30.2882 33.2512 36.7737 32.7979 43.5779C30.1374 44.1394 27.7853 45.6808 26.2087 47.8962C24.6321 50.1116 23.9462 52.8388 24.2872 55.5365C24.6283 58.2341 25.9713 60.7049 28.0496 62.4582C30.128 64.2115 32.7897 65.1191 35.5062 65.0008L36.4813 70.4175H2.70833C1.99004 70.4175 1.30116 70.7028 0.793252 71.2107C0.285341 71.7186 0 72.4075 0 73.1258C0 73.8441 0.285341 74.533 0.793252 75.0409C1.30116 75.5488 1.99004 75.8341 2.70833 75.8341H38.1062C40.0152 81.2644 43.5287 85.9868 48.1813 89.3758C46.7188 95.4696 41.8979 108.334 27.0833 108.334C26.365 108.334 25.6762 108.619 25.1683 109.127C24.6603 109.635 24.375 110.324 24.375 111.042C24.375 111.761 24.6603 112.45 25.1683 112.958C25.6762 113.465 26.365 113.751 27.0833 113.751C41.8438 113.751 49.9417 103.161 53.0292 92.0841C56.7838 93.8106 60.8675 94.7045 65 94.7045C69.1325 94.7045 73.2162 93.8106 76.9708 92.0841C80.0583 103.08 88.1562 113.751 102.917 113.751C103.635 113.751 104.324 113.465 104.832 112.958C105.34 112.45 105.625 111.761 105.625 111.042C105.625 110.324 105.34 109.635 104.832 109.127C104.324 108.619 103.635 108.334 102.917 108.334C88.1021 108.334 83.2812 95.4154 81.8187 89.3758C86.4717 85.981 89.9924 81.2615 91.9208 75.8341H127.292C128.01 75.8341 128.699 75.5488 129.207 75.0409C129.715 74.533 130 73.8441 130 73.1258C130 72.4075 129.715 71.7186 129.207 71.2107C128.699 70.7028 128.01 70.4175 127.292 70.4175ZM95.225 59.5841C97.0667 49.2383 96.7146 51.4591 96.9583 49.2654C98.0426 49.7608 98.9333 50.6 99.4921 51.653C100.051 52.706 100.247 53.9139 100.049 55.0896C99.8518 56.2652 99.272 57.3428 98.3998 58.1555C97.5276 58.9681 96.4116 59.4702 95.225 59.5841ZM32.9333 49.2654C33.3703 52.7342 33.985 56.1783 34.775 59.5841C33.5681 59.4913 32.4271 58.9969 31.5341 58.1798C30.641 57.3627 30.0474 56.2701 29.8479 55.0762C29.6484 53.8823 29.8545 52.656 30.4334 51.593C31.0123 50.5299 31.9305 49.6914 33.0417 49.2112L32.9333 49.2654ZM42.1958 70.4175L38.6479 50.5654C37.954 46.714 38.1159 42.7571 39.1222 38.9752C40.1285 35.1934 41.9546 31.6793 44.4708 28.6821C62.1021 7.6383 96.1187 23.8612 91.3521 50.5654L87.8042 70.4175C87.75 70.58 42.2229 70.4175 42.1958 70.4175ZM43.9292 75.8341H86.0708C84.2121 79.8579 81.24 83.2654 77.506 85.6536C73.7721 88.0418 69.4324 89.3109 65 89.3109C60.5676 89.3109 56.2279 88.0418 52.494 85.6536C48.76 83.2654 45.7879 79.8579 43.9292 75.8341Z" fill="white"/>
</g>
<defs>
<clipPath id="clip0_543_151356">
<rect width="130" height="130" fill="white"/>
</clipPath>
</defs>
</svg>
