<svg width="150" height="150" viewBox="0 0 150 150" fill="none" xmlns="http://www.w3.org/2000/svg">
<path d="M129.036 17.7891C129.898 17.7891 130.602 18.4482 130.602 19.2539V129.996C130.602 130.802 129.898 131.461 129.036 131.461H20.9639C20.1024 131.461 19.3976 130.802 19.3976 129.996V19.2539C19.3976 18.4482 20.1024 17.7891 20.9639 17.7891H129.036ZM129.036 9H20.9639C14.9024 9 10 13.585 10 19.2539V129.996C10 135.665 14.9024 140.25 20.9639 140.25H129.036C135.098 140.25 140 135.665 140 129.996V19.2539C140 13.5996 135.082 9 129.036 9Z" fill="white"/>
<path d="M30.5866 93V56.6364H54.2372V62.1584H37.174V72.0305H53.0121V77.5526H37.174V87.478H54.3793V93H30.5866ZM87.0906 56.6364V93H81.2312L64.0969 68.2308H63.7951V93H57.2077V56.6364H63.1026L80.2191 81.4233H80.5387V56.6364H87.0906ZM102.841 93H90.5183V56.6364H103.089C106.7 56.6364 109.801 57.3643 112.393 58.8203C114.997 60.2644 116.998 62.3419 118.395 65.0526C119.791 67.7633 120.49 71.0066 120.49 74.7827C120.49 78.5705 119.786 81.8258 118.377 84.5483C116.98 87.2708 114.962 89.3601 112.322 90.8161C109.694 92.272 106.534 93 102.841 93ZM97.1056 87.3004H102.521C105.054 87.3004 107.167 86.8388 108.86 85.9155C110.553 84.9804 111.825 83.5895 112.677 81.7429C113.53 79.8845 113.956 77.5644 113.956 74.7827C113.956 72.0009 113.53 69.6927 112.677 67.858C111.825 66.0114 110.564 64.6323 108.895 63.7209C107.238 62.7976 105.179 62.3359 102.716 62.3359H97.1056V87.3004Z" fill="white"/>
</svg>
