<svg width="150" height="150" viewBox="0 0 150 150" fill="none" xmlns="http://www.w3.org/2000/svg">
<path d="M129.036 17.7891C129.898 17.7891 130.602 18.4482 130.602 19.2539V129.996C130.602 130.802 129.898 131.461 129.036 131.461H20.9639C20.1024 131.461 19.3976 130.802 19.3976 129.996V19.2539C19.3976 18.4482 20.1024 17.7891 20.9639 17.7891H129.036ZM129.036 9H20.9639C14.9024 9 10 13.585 10 19.2539V129.996C10 135.665 14.9024 140.25 20.9639 140.25H129.036C135.098 140.25 140 135.665 140 129.996V19.2539C140 13.5996 135.082 9 129.036 9Z" fill="white"/>
<path d="M50.1165 67.7273V72.6989H33.9943V67.7273H50.1165ZM38.0249 95V65.1527C38.0249 63.3179 38.4036 61.791 39.1612 60.5717C39.9306 59.3525 40.9605 58.4411 42.2507 57.8374C43.541 57.2337 44.9732 56.9318 46.5476 56.9318C47.6603 56.9318 48.6487 57.0206 49.5128 57.1982C50.3769 57.3757 51.0161 57.5355 51.4304 57.6776L50.152 62.6491C49.8797 62.5663 49.5365 62.4834 49.1222 62.4006C48.7079 62.3059 48.2462 62.2585 47.7372 62.2585C46.5417 62.2585 45.6953 62.5485 45.1982 63.1286C44.7128 63.6967 44.4702 64.5135 44.4702 65.5788V95H38.0249ZM62.2711 95.5327C59.6078 95.5327 57.2995 94.9467 55.3464 93.7749C53.3933 92.603 51.8781 90.9635 50.801 88.8565C49.7356 86.7495 49.2029 84.2874 49.2029 81.4702C49.2029 78.6529 49.7356 76.1849 50.801 74.0661C51.8781 71.9472 53.3933 70.3018 55.3464 69.13C57.2995 67.9581 59.6078 67.3722 62.2711 67.3722C64.9345 67.3722 67.2427 67.9581 69.1958 69.13C71.149 70.3018 72.6582 71.9472 73.7235 74.0661C74.8007 76.1849 75.3393 78.6529 75.3393 81.4702C75.3393 84.2874 74.8007 86.7495 73.7235 88.8565C72.6582 90.9635 71.149 92.603 69.1958 93.7749C67.2427 94.9467 64.9345 95.5327 62.2711 95.5327ZM62.3066 90.3835C63.7508 90.3835 64.9582 89.987 65.9288 89.1939C66.8994 88.389 67.6215 87.3118 68.095 85.9624C68.5803 84.6129 68.823 83.1096 68.823 81.4524C68.823 79.7834 68.5803 78.2741 68.095 76.9247C67.6215 75.5634 66.8994 74.4804 65.9288 73.6754C64.9582 72.8705 63.7508 72.468 62.3066 72.468C60.827 72.468 59.5959 72.8705 58.6135 73.6754C57.6428 74.4804 56.9148 75.5634 56.4295 76.9247C55.956 78.2741 55.7193 79.7834 55.7193 81.4524C55.7193 83.1096 55.956 84.6129 56.4295 85.9624C56.9148 87.3118 57.6428 88.389 58.6135 89.1939C59.5959 89.987 60.827 90.3835 62.3066 90.3835ZM77.0447 95V67.7273H83.277V72.2727H83.5611C84.0582 70.6984 84.9105 69.4851 86.1179 68.6328C87.3371 67.7687 88.728 67.3366 90.2905 67.3366C90.6456 67.3366 91.0421 67.3544 91.4801 67.3899C91.9299 67.4136 92.3028 67.455 92.5987 67.5142V73.4268C92.3265 73.3321 91.8944 73.2493 91.3026 73.1783C90.7225 73.0954 90.1603 73.054 89.6158 73.054C88.4439 73.054 87.3904 73.3085 86.4553 73.8175C85.532 74.3146 84.804 75.0071 84.2713 75.8949C83.7386 76.7827 83.4723 77.8066 83.4723 78.9666V95H77.0447Z" fill="white"/>
<path d="M97.9205 78.1392C97.9205 74.5881 98.3892 71.3258 99.3267 68.3523C100.274 65.3693 101.68 62.6136 103.545 60.0852H108.389C107.67 61.0227 106.997 62.1733 106.372 63.5369C105.747 64.8911 105.203 66.3778 104.739 67.9972C104.284 69.607 103.924 71.2784 103.659 73.0114C103.403 74.7443 103.276 76.4536 103.276 78.1392C103.276 80.3835 103.498 82.6562 103.943 84.9574C104.398 87.2585 105.009 89.3892 105.776 91.3494C106.552 93.3191 107.423 94.929 108.389 96.179H103.545C101.68 93.6506 100.274 90.8996 99.3267 87.9261C98.3892 84.9432 97.9205 81.6809 97.9205 78.1392ZM121.56 78.1392C121.56 81.6809 121.087 84.9432 120.14 87.9261C119.202 90.8996 117.801 93.6506 115.935 96.179H111.092C111.821 95.2415 112.493 94.0956 113.109 92.7415C113.734 91.3873 114.273 89.9006 114.728 88.2812C115.192 86.6619 115.552 84.9858 115.808 83.2528C116.073 81.5199 116.205 79.8153 116.205 78.1392C116.205 75.8949 115.978 73.6222 115.523 71.321C115.078 69.0199 114.468 66.8845 113.691 64.9148C112.924 62.9451 112.058 61.3352 111.092 60.0852H115.935C117.801 62.6136 119.202 65.3693 120.14 68.3523C121.087 71.3258 121.56 74.5881 121.56 78.1392Z" fill="white"/>
</svg>
