<svg width="153" height="130" viewBox="0 0 153 130" fill="none" xmlns="http://www.w3.org/2000/svg">
<path d="M144.098 126.534H6.70223C5.75468 126.534 5.2809 126.026 4.80712 125.517C4.33334 125.009 4.33334 123.992 4.33334 123.484L23.2845 52.3014C23.7582 51.2845 24.7058 50.2676 25.6533 50.2676H125.147C126.094 50.2676 127.042 50.776 127.516 52.3014L146.467 123.484C146.467 124.5 146.467 125.009 145.993 125.517C145.519 126.026 145.045 126.534 144.098 126.534ZM10.0187 121.45H141.255L123.725 55.352H27.5485L10.0187 121.45Z" fill="white"/>
<path d="M96.516 22.7498L96.4998 22.4952L96.4202 22.2527C96.3154 21.9336 96.3 21.5814 96.3 20.8667C96.3 12.463 104.107 5 113 5C121.877 5 129.7 12.4473 129.7 21.09C129.7 21.2342 129.676 21.407 129.616 21.771C129.614 21.7852 129.612 21.7998 129.609 21.8148C129.561 22.1077 129.488 22.551 129.481 23.0243C129.09 28.7159 126.276 32.9851 122.948 38.0337C122.745 38.3425 122.539 38.6543 122.332 38.9695C122.331 38.9715 122.33 38.9735 122.328 38.9755L122.229 39.1241C118.723 44.3775 114.732 50.3574 112.991 59.2579C111.224 50.359 107.189 44.2464 103.668 38.9695C103.467 38.6636 103.267 38.3609 103.07 38.0608C99.7296 32.9937 96.8935 28.6911 96.516 22.7498ZM122.7 19.75C122.7 14.4306 118.313 9.93333 113 9.93333C107.687 9.93333 103.3 14.4306 103.3 19.75C103.3 25.0694 107.687 29.5667 113 29.5667C118.313 29.5667 122.7 25.0694 122.7 19.75Z" stroke="white" stroke-width="4"/>
<path d="M16.4107 106.133L39.5453 100.097L26.9561 120.423L24.8349 110.952L16.4109 106.132L16.4107 106.133ZM26.768 109.526L27.9233 114.687L34.7841 103.609L22.1766 106.901L26.7678 109.527L26.768 109.526Z" fill="white"/>
<path d="M43.309 97.8425C62.383 109.072 78.102 89.0586 79.4312 86.9536C80.7605 84.8485 88.4432 60.1064 104.938 64.9175" stroke="white" stroke-width="4" stroke-dasharray="5 5"/>
</svg>
