<svg width="150" height="150" viewBox="0 0 150 150" fill="none" xmlns="http://www.w3.org/2000/svg">
<path d="M129.036 17.7891C129.898 17.7891 130.602 18.4482 130.602 19.2539V129.996C130.602 130.802 129.898 131.461 129.036 131.461H20.9639C20.1024 131.461 19.3976 130.802 19.3976 129.996V19.2539C19.3976 18.4482 20.1024 17.7891 20.9639 17.7891H129.036ZM129.036 9H20.9639C14.9024 9 10 13.585 10 19.2539V129.996C10 135.665 14.9024 140.25 20.9639 140.25H129.036C135.098 140.25 140 135.665 140 129.996V19.2539C140 13.5996 135.082 9 129.036 9Z" fill="white"/>
<path d="M45.3026 93V65.7273H51.7301V93H45.3026ZM48.5341 61.8565C47.5161 61.8565 46.6402 61.5192 45.9062 60.8445C45.1723 60.1579 44.8054 59.3352 44.8054 58.3764C44.8054 57.4058 45.1723 56.5831 45.9062 55.9084C46.6402 55.2218 47.5161 54.8786 48.5341 54.8786C49.5639 54.8786 50.4399 55.2218 51.1619 55.9084C51.8958 56.5831 52.2628 57.4058 52.2628 58.3764C52.2628 59.3352 51.8958 60.1579 51.1619 60.8445C50.4399 61.5192 49.5639 61.8565 48.5341 61.8565ZM72.1536 65.7273V70.6989H56.0314V65.7273H72.1536ZM60.062 93V63.1527C60.062 61.3179 60.4408 59.791 61.1983 58.5717C61.9677 57.3525 62.9976 56.4411 64.2878 55.8374C65.5781 55.2337 67.0104 54.9318 68.5847 54.9318C69.6974 54.9318 70.6858 55.0206 71.5499 55.1982C72.414 55.3757 73.0532 55.5355 73.4675 55.6776L72.1891 60.6491C71.9168 60.5663 71.5736 60.4834 71.1593 60.4006C70.745 60.3059 70.2833 60.2585 69.7743 60.2585C68.5788 60.2585 67.7324 60.5485 67.2353 61.1286C66.7499 61.6967 66.5073 62.5135 66.5073 63.5788V93H60.062Z" fill="white"/>
<path d="M79.9205 75.1392C79.9205 71.5881 80.3892 68.3258 81.3267 65.3523C82.2737 62.3693 83.6799 59.6136 85.5455 57.0852H90.3892C89.6695 58.0227 88.9972 59.1733 88.3722 60.5369C87.7472 61.8911 87.2027 63.3778 86.7386 64.9972C86.2841 66.607 85.9242 68.2784 85.6591 70.0114C85.4034 71.7443 85.2756 73.4536 85.2756 75.1392C85.2756 77.3835 85.4981 79.6562 85.9432 81.9574C86.3977 84.2585 87.0085 86.3892 87.7756 88.3494C88.5521 90.3191 89.4233 91.929 90.3892 93.179H85.5455C83.6799 90.6506 82.2737 87.8996 81.3267 84.9261C80.3892 81.9432 79.9205 78.6809 79.9205 75.1392ZM103.56 75.1392C103.56 78.6809 103.087 81.9432 102.14 84.9261C101.202 87.8996 99.8009 90.6506 97.9354 93.179H93.0916C93.8208 92.2415 94.4931 91.0956 95.1087 89.7415C95.7337 88.3873 96.2734 86.9006 96.728 85.2812C97.192 83.6619 97.5518 81.9858 97.8075 80.2528C98.0727 78.5199 98.2053 76.8153 98.2053 75.1392C98.2053 72.8949 97.978 70.6222 97.5234 68.321C97.0784 66.0199 96.4676 63.8845 95.6911 61.9148C94.924 59.9451 94.0575 58.3352 93.0916 57.0852H97.9354C99.8009 59.6136 101.202 62.3693 102.14 65.3523C103.087 68.3258 103.56 71.5881 103.56 75.1392Z" fill="white"/>
</svg>
