<svg width="130" height="130" viewBox="0 0 130 130" fill="none" xmlns="http://www.w3.org/2000/svg">
<path d="M32.0602 114.399C31.753 114.4 31.4425 114.355 31.1369 114.263C29.7888 113.855 28.8667 112.614 28.8667 111.206V95.2938H24.8202C15.4353 95.2938 7.79999 87.659 7.79999 78.2741V31.7521C7.79999 22.3672 15.4353 14.7324 24.8202 14.7324H105.041C114.426 14.7324 122.061 22.3672 122.061 31.7521V78.2741C122.061 87.659 114.426 95.2938 105.041 95.2938H46.473L34.7199 112.973C34.1169 113.881 33.1092 114.399 32.0602 114.399ZM24.8208 21.1188C18.9573 21.1188 14.1875 25.8892 14.1875 31.7521V78.2741C14.1875 84.137 18.9578 88.9074 24.8208 88.9074H32.0607C33.8244 88.9074 35.2542 90.3372 35.2542 92.1008V100.634L42.1025 90.3334C42.6946 89.4422 43.6924 88.9079 44.7616 88.9079H105.042C110.905 88.9079 115.676 84.1376 115.676 78.2746V31.7521C115.676 25.8892 110.905 21.1188 105.042 21.1188H24.8208Z" fill="white"/>
<path d="M35.9083 61.3879C39.5471 61.3879 42.4968 58.4381 42.4968 54.7994C42.4968 51.1607 39.5471 48.2109 35.9083 48.2109C32.2696 48.2109 29.3199 51.1607 29.3199 54.7994C29.3199 58.4381 32.2696 61.3879 35.9083 61.3879Z" fill="white"/>
<path d="M64.9312 61.3879C68.57 61.3879 71.5197 58.4381 71.5197 54.7994C71.5197 51.1607 68.57 48.2109 64.9312 48.2109C61.2925 48.2109 58.3427 51.1607 58.3427 54.7994C58.3427 58.4381 61.2925 61.3879 64.9312 61.3879Z" fill="white"/>
<path d="M93.9535 61.3879C97.5922 61.3879 100.542 58.4381 100.542 54.7994C100.542 51.1607 97.5922 48.2109 93.9535 48.2109C90.3148 48.2109 87.365 51.1607 87.365 54.7994C87.365 58.4381 90.3148 61.3879 93.9535 61.3879Z" fill="white"/>
</svg>
