<svg width="130" height="130" viewBox="0 0 130 130" fill="none" xmlns="http://www.w3.org/2000/svg">
<g clip-path="url(#clip0_544_196151)">
<path fill-rule="evenodd" clip-rule="evenodd" d="M62.5711 73.4448C70.2185 72.8823 77.3317 69.6359 82.8094 64.161C88.8569 58.1169 92.1872 50.0808 92.1872 41.533C92.1872 32.9851 88.8569 24.949 82.8094 18.905C76.7627 12.8615 68.7232 9.5332 60.1721 9.5332C51.6209 9.5332 43.5814 12.8615 37.5347 18.905C31.4873 24.949 28.1569 32.9853 28.1569 41.533C28.1569 50.0808 31.4873 58.1169 37.5347 64.161C39.4025 66.0279 41.4609 67.6347 43.6655 68.9654C36.5522 71.4444 29.9703 75.3852 24.3329 80.6272C14.1771 90.0709 8.00181 102.859 6.94467 116.636C6.7837 118.734 8.35347 120.564 10.4507 120.725C10.55 120.733 10.6484 120.737 10.7463 120.737C12.7174 120.737 14.3863 119.217 14.5396 117.219C15.4499 105.356 20.7701 94.3418 29.5201 86.2055C38.3154 78.0271 49.7795 73.523 61.8006 73.523C62.0594 73.5231 62.3176 73.4969 62.5711 73.4448ZM60.1721 17.1504C46.719 17.1504 35.7741 28.0884 35.7741 41.533C35.7741 54.9776 46.719 65.9156 60.1721 65.9156C73.6252 65.9156 84.57 54.9776 84.57 41.533C84.57 28.0884 73.6252 17.1504 60.1721 17.1504Z" fill="white"/>
<path d="M76.5098 129.433C76.342 129.434 76.1725 129.409 76.0056 129.359C75.2693 129.136 74.7657 128.458 74.7657 127.689V118.999H72.5557C67.4301 118.999 63.26 114.829 63.26 109.704V84.2954C63.26 79.1698 67.4301 75 72.5557 75H116.369C121.494 75 125.664 79.1698 125.664 84.2954V109.704C125.664 114.829 121.494 118.999 116.369 118.999H84.3814L77.9624 128.655C77.6331 129.15 77.0828 129.433 76.5098 129.433ZM72.556 78.488C69.3536 78.488 66.7486 81.0933 66.7486 84.2954V109.704C66.7486 112.906 69.3539 115.511 72.556 115.511H76.5101C77.4734 115.511 78.2542 116.292 78.2542 117.255V121.916L81.9945 116.29C82.3178 115.803 82.8628 115.511 83.4468 115.511H116.369C119.571 115.511 122.177 112.906 122.177 109.704V84.2954C122.177 81.0933 119.571 78.488 116.369 78.488H72.556Z" fill="white"/>
<path d="M78.6115 103.529C80.5988 103.529 82.2098 101.918 82.2098 99.9304C82.2098 97.9431 80.5988 96.332 78.6115 96.332C76.6242 96.332 75.0132 97.9431 75.0132 99.9304C75.0132 101.918 76.6242 103.529 78.6115 103.529Z" fill="white"/>
<path d="M94.4625 103.529C96.4498 103.529 98.0608 101.918 98.0608 99.9304C98.0608 97.9431 96.4498 96.332 94.4625 96.332C92.4752 96.332 90.8641 97.9431 90.8641 99.9304C90.8641 101.918 92.4752 103.529 94.4625 103.529Z" fill="white"/>
<path d="M110.313 103.529C112.3 103.529 113.911 101.918 113.911 99.9304C113.911 97.9431 112.3 96.332 110.313 96.332C108.326 96.332 106.715 97.9431 106.715 99.9304C106.715 101.918 108.326 103.529 110.313 103.529Z" fill="white"/>
</g>
<defs>
<clipPath id="clip0_544_196151">
<rect width="130" height="130" fill="white"/>
</clipPath>
</defs>
</svg>
