<svg width="150" height="150" viewBox="0 0 150 150" fill="none" xmlns="http://www.w3.org/2000/svg">
<path d="M129.036 17.7891C129.898 17.7891 130.602 18.4482 130.602 19.2539V129.996C130.602 130.802 129.898 131.461 129.036 131.461H20.9639C20.1024 131.461 19.3976 130.802 19.3976 129.996V19.2539C19.3976 18.4482 20.1024 17.7891 20.9639 17.7891H129.036ZM129.036 9H20.9639C14.9024 9 10 13.585 10 19.2539V129.996C10 135.665 14.9024 140.25 20.9639 140.25H129.036C135.098 140.25 140 135.665 140 129.996V19.2539C140 13.5996 135.082 9 129.036 9Z" fill="white"/>
<path d="M67.6634 58.7273L57.951 86H50.8487L41.1364 58.7273H47.9901L54.2578 78.9865H54.5419L60.8274 58.7273H67.6634ZM75.4279 86.5504C73.6997 86.5504 72.1431 86.2427 70.7582 85.6271C69.3851 84.9998 68.296 84.0765 67.4911 82.8572C66.698 81.638 66.3015 80.1347 66.3015 78.3473C66.3015 76.8085 66.5856 75.536 67.1538 74.5298C67.7219 73.5237 68.4973 72.7188 69.4798 72.1151C70.4622 71.5114 71.569 71.0556 72.8001 70.7479C74.043 70.4283 75.3273 70.1974 76.6531 70.0554C78.2511 69.8897 79.5472 69.7417 80.5415 69.6115C81.5359 69.4695 82.2579 69.2564 82.7077 68.9723C83.1694 68.6764 83.4002 68.2206 83.4002 67.6051V67.4986C83.4002 66.161 83.0037 65.1252 82.2106 64.3913C81.4175 63.6574 80.2752 63.2905 78.7837 63.2905C77.2094 63.2905 75.9606 63.6338 75.0373 64.3203C74.1258 65.0069 73.5103 65.8177 73.1907 66.7528L67.1893 65.9006C67.6628 64.2434 68.444 62.8584 69.533 61.7457C70.622 60.6212 71.9537 59.7808 73.5281 59.2244C75.1024 58.6562 76.8424 58.3722 78.7482 58.3722C80.0621 58.3722 81.3701 58.526 82.6722 58.8338C83.9743 59.1416 85.1639 59.6506 86.2411 60.3608C87.3183 61.0592 88.1824 62.0121 88.8335 63.2195C89.4963 64.4268 89.8278 65.9361 89.8278 67.7472V86H83.6488V82.2536H83.4357C83.0451 83.0111 82.4947 83.7214 81.7844 84.3842C81.0861 85.0353 80.2042 85.562 79.1388 85.9645C78.0853 86.3551 76.8484 86.5504 75.4279 86.5504ZM77.0969 81.8274C78.3872 81.8274 79.5058 81.5729 80.4528 81.0639C81.3997 80.5431 82.1277 79.8565 82.6367 79.0043C83.1576 78.152 83.418 77.2228 83.418 76.2166V73.0028C83.2167 73.1686 82.8735 73.3224 82.3881 73.4645C81.9147 73.6065 81.382 73.7308 80.7901 73.8374C80.1983 73.9439 79.6123 74.0386 79.0323 74.1214C78.4523 74.2043 77.9492 74.2753 77.5231 74.3345C76.5643 74.4647 75.7061 74.6778 74.9485 74.9737C74.1909 75.2696 73.5932 75.6839 73.1552 76.2166C72.7172 76.7375 72.4982 77.4122 72.4982 78.2408C72.4982 79.4245 72.9303 80.3182 73.7944 80.9219C74.6585 81.5256 75.7594 81.8274 77.0969 81.8274ZM92.5408 86V58.7273H98.7731V63.2727H99.0572C99.5543 61.6984 100.407 60.4851 101.614 59.6328C102.833 58.7687 104.224 58.3366 105.787 58.3366C106.142 58.3366 106.538 58.3544 106.976 58.3899C107.426 58.4136 107.799 58.455 108.095 58.5142V64.4268C107.823 64.3321 107.391 64.2493 106.799 64.1783C106.219 64.0954 105.656 64.054 105.112 64.054C103.94 64.054 102.886 64.3085 101.951 64.8175C101.028 65.3146 100.3 66.0071 99.7674 66.8949C99.2347 67.7827 98.9684 68.8066 98.9684 69.9666V86H92.5408Z" fill="white"/>
<path d="M40 95.9432H109.071V99.3523H40V95.9432Z" fill="white"/>
</svg>
